<svg xmlns="http://www.w3.org/2000/svg" viewBox="0 0 158 140">
  <defs>
    <linearGradient id="browser-screen" x1="0%" y1="0%" x2="100%" y2="100%">
      <stop offset="0%" stop-color="#A29BFE" />
      <stop offset="55%" stop-color="#6C5CE7" />
      <stop offset="100%" stop-color="#4B3FB5" />
    </linearGradient>
    <linearGradient id="browser-frame" x1="0%" y1="0%" x2="0%" y2="100%">
      <stop offset="0%" stop-color="#E3E0FF" />
      <stop offset="100%" stop-color="#8D88B8" />
    </linearGradient>
    <linearGradient id="browser-base" x1="0%" y1="0%" x2="100%" y2="100%">
      <stop offset="0%" stop-color="#D6D3F2" />
      <stop offset="100%" stop-color="#7A759F" />
    </linearGradient>
    <linearGradient id="browser-highlight" x1="0%" y1="0%" x2="100%" y2="100%">
      <stop offset="0%" stop-color="#FFFFFF" stop-opacity="0.45" />
      <stop offset="100%" stop-color="#FFFFFF" stop-opacity="0" />
    </linearGradient>
  </defs>

  <ellipse cx="79" cy="118" rx="58" ry="18" fill="rgba(0,0,0,0.2)" />

  <rect x="33" y="26" width="92" height="60" rx="12" ry="12" fill="url(#browser-frame)" />
  <rect x="38" y="31" width="82" height="50" rx="8" ry="8" fill="url(#browser-screen)" />

  <rect x="42" y="35" width="74" height="8" rx="4" ry="4" fill="rgba(255,255,255,0.18)" />
  <circle cx="48" cy="39" r="1.4" fill="#F9F7FF" />
  <circle cx="54" cy="39" r="1.4" fill="#F0EDFF" opacity="0.9" />
  <circle cx="60" cy="39" r="1.4" fill="#E6E2FF" opacity="0.8" />

  <rect x="50" y="49" width="58" height="24" rx="5" ry="5" fill="rgba(17,16,40,0.26)" />
  <path d="M54 67h50" stroke="rgba(255,255,255,0.24)" stroke-width="1" />
  <path d="M54 63h38" stroke="rgba(255,255,255,0.22)" stroke-width="1" />
  <path d="M54 59h44" stroke="rgba(255,255,255,0.2)" stroke-width="1" />

  <path d="M41 90h76l18 14H23z" fill="url(#browser-base)" />
  <rect x="70" y="93" width="18" height="3" rx="1.5" ry="1.5" fill="rgba(79,70,141,0.55)" />

  <ellipse cx="62" cy="48" rx="20" ry="24" fill="url(#browser-highlight)" />
</svg>
