<svg xmlns="http://www.w3.org/2000/svg" viewBox="0 0 158 140">
  <defs>
    <linearGradient id="globe-body" x1="0%" y1="0%" x2="100%" y2="100%">
      <stop offset="0%" stop-color="#4DA8DA" />
      <stop offset="50%" stop-color="#2E86C1" />
      <stop offset="100%" stop-color="#1B4F72" />
    </linearGradient>
    <linearGradient id="globe-highlight" x1="0%" y1="0%" x2="100%" y2="100%">
      <stop offset="0%" stop-color="#FFFFFF" stop-opacity="0.5" />
      <stop offset="100%" stop-color="#FFFFFF" stop-opacity="0" />
    </linearGradient>
  </defs>

  <!-- Base shadow ellipse -->
  <ellipse cx="79" cy="118" rx="58" ry="18" fill="rgba(0,0,0,0.2)" />

  <!-- Globe body (dome/sphere) -->
  <ellipse cx="79" cy="72" rx="56" ry="56" fill="url(#globe-body)" />

  <!-- Latitude lines (horizontal arcs across the sphere) -->
  <ellipse cx="79" cy="42" rx="42" ry="8" fill="none" stroke="#5DADE2" stroke-width="0.8" opacity="0.6" />
  <ellipse cx="79" cy="58" rx="52" ry="10" fill="none" stroke="#5DADE2" stroke-width="0.8" opacity="0.6" />
  <ellipse cx="79" cy="72" rx="56" ry="11" fill="none" stroke="#5DADE2" stroke-width="0.8" opacity="0.5" />
  <ellipse cx="79" cy="86" rx="52" ry="10" fill="none" stroke="#5DADE2" stroke-width="0.8" opacity="0.5" />
  <ellipse cx="79" cy="100" rx="42" ry="8" fill="none" stroke="#5DADE2" stroke-width="0.8" opacity="0.4" />

  <!-- Longitude lines (vertical arcs) -->
  <ellipse cx="79" cy="72" rx="12" ry="56" fill="none" stroke="#5DADE2" stroke-width="0.8" opacity="0.6" />
  <ellipse cx="79" cy="72" rx="32" ry="56" fill="none" stroke="#5DADE2" stroke-width="0.8" opacity="0.5" />
  <ellipse cx="79" cy="72" rx="48" ry="56" fill="none" stroke="#5DADE2" stroke-width="0.8" opacity="0.4" />

  <!-- Globe highlight (glossy reflection) -->
  <ellipse cx="62" cy="48" rx="22" ry="26" fill="url(#globe-highlight)" />

  <!-- Flat top platform for studs -->
  <ellipse cx="79" cy="22" rx="30" ry="10" fill="#2E86C1" />
  <ellipse cx="79" cy="22" rx="30" ry="10" fill="none" stroke="#1A5276" stroke-width="0.8" opacity="0.4" />

  <!-- Left Stud (Universal Stud Standard: rx=12, ry=6, height=5) -->
  <g>
    <path d="M 55 12 L 55 17 A 12 6 0 0 0 79 17 L 79 12 Z" fill="#1A5276" />
    <ellipse cx="67" cy="12" rx="12" ry="6" fill="#3498DB" />
    <ellipse cx="67" cy="12" rx="7.2" ry="3.6" fill="#2E86C1" fill-opacity="0.7" stroke="#1A5276" stroke-width="1" />
  </g>

  <!-- Right Stud (Universal Stud Standard: rx=12, ry=6, height=5) -->
  <g>
    <path d="M 79 12 L 79 17 A 12 6 0 0 0 103 17 L 103 12 Z" fill="#1A5276" />
    <ellipse cx="91" cy="12" rx="12" ry="6" fill="#3498DB" />
    <ellipse cx="91" cy="12" rx="7.2" ry="3.6" fill="#2E86C1" fill-opacity="0.7" stroke="#1A5276" stroke-width="1" />
  </g>
</svg>
