<svg xmlns="http://www.w3.org/2000/svg" viewBox="0 0 120 140">
  <g>
    <!-- Left face (dark) -->
    <polygon points="10,25 10,45 60,70 60,50" fill="#0D47A1" />
    <!-- Right face (medium) -->
    <polygon points="60,50 60,70 110,45 110,25" fill="#1565C0" />
    <!-- Top face (light) -->
    <polygon points="60,0 10,25 60,50 110,25" fill="#1E88E5" />
    
    <!-- Studs on top face -->
    <g transform="translate(35, 12)">
      <ellipse cx="0" cy="0" rx="8" ry="4" fill="#1E88E5" />
      <path d="M -8 0 L -8 -3 A 8 4 0 0 1 8 -3 L 8 0 A 8 4 0 0 1 -8 0 Z" fill="#0D47A1" />
      <ellipse cx="0" cy="-3" rx="8" ry="4" fill="#42A5F5" />
    </g>
    <g transform="translate(55, 22)">
      <ellipse cx="0" cy="0" rx="8" ry="4" fill="#1E88E5" />
      <path d="M -8 0 L -8 -3 A 8 4 0 0 1 8 -3 L 8 0 A 8 4 0 0 1 -8 0 Z" fill="#0D47A1" />
      <ellipse cx="0" cy="-3" rx="8" ry="4" fill="#42A5F5" />
    </g>
    <g transform="translate(65, 12)">
      <ellipse cx="0" cy="0" rx="8" ry="4" fill="#1E88E5" />
      <path d="M -8 0 L -8 -3 A 8 4 0 0 1 8 -3 L 8 0 A 8 4 0 0 1 -8 0 Z" fill="#0D47A1" />
      <ellipse cx="0" cy="-3" rx="8" ry="4" fill="#42A5F5" />
    </g>
    <g transform="translate(85, 22)">
      <ellipse cx="0" cy="0" rx="8" ry="4" fill="#1E88E5" />
      <path d="M -8 0 L -8 -3 A 8 4 0 0 1 8 -3 L 8 0 A 8 4 0 0 1 -8 0 Z" fill="#0D47A1" />
      <ellipse cx="0" cy="-3" rx="8" ry="4" fill="#42A5F5" />
    </g>
    <g transform="translate(45, 32)">
      <ellipse cx="0" cy="0" rx="8" ry="4" fill="#1E88E5" />
      <path d="M -8 0 L -8 -3 A 8 4 0 0 1 8 -3 L 8 0 A 8 4 0 0 1 -8 0 Z" fill="#0D47A1" />
      <ellipse cx="0" cy="-3" rx="8" ry="4" fill="#42A5F5" />
    </g>
    <g transform="translate(75, 32)">
      <ellipse cx="0" cy="0" rx="8" ry="4" fill="#1E88E5" />
      <path d="M -8 0 L -8 -3 A 8 4 0 0 1 8 -3 L 8 0 A 8 4 0 0 1 -8 0 Z" fill="#0D47A1" />
      <ellipse cx="0" cy="-3" rx="8" ry="4" fill="#42A5F5" />
    </g>
    
    <!-- Label on left face -->
    <g transform="translate(22, 52) skewY(-26.565) scale(0.85)">
      <text
        x="0"
        y="0"
        fill="#FFFFFF"
        fill-opacity="0.94"
        font-family="Fredoka, 'Varela Round', Arial, sans-serif"
        font-size="10"
        font-weight="800"
      >
        VNET
      </text>
    </g>

    <!-- Network icon on right face -->
    <g transform="translate(82, 48) skewY(26.565) scale(0.7)">
      <circle cx="0" cy="0" r="6" fill="none" stroke="#FFFFFF" stroke-opacity="0.9" stroke-width="2" />
      <circle cx="-10" cy="6" r="4" fill="none" stroke="#FFFFFF" stroke-opacity="0.9" stroke-width="2" />
      <circle cx="10" cy="6" r="4" fill="none" stroke="#FFFFFF" stroke-opacity="0.9" stroke-width="2" />
      <line x1="0" y1="6" x2="-7" y2="4" stroke="#FFFFFF" stroke-opacity="0.9" stroke-width="2" />
      <line x1="0" y1="6" x2="7" y2="4" stroke="#FFFFFF" stroke-opacity="0.9" stroke-width="2" />
    </g>
  </g>
</svg>
