<svg viewBox="0 0 1152 606" xmlns="http://www.w3.org/2000/svg">
  <defs>
    <g id="stud-network">
      <ellipse cx="0" cy="5" rx="12" ry="6" fill="#1D4ED8" />
      <ellipse cx="0" cy="0" rx="12" ry="6" fill="#60A5FA" />
      <ellipse cx="0" cy="0" rx="7.2" ry="3.6" fill="#93C5FD" opacity="0.3" />
    </g>
  </defs>

  <!-- Faces -->
  <polygon points="576,10 1142,288 576,566 10,288" fill="#2563EB" stroke="#60A5FA" stroke-width="1" stroke-opacity="0.6" />
  <polygon points="10,288 576,566 576,596 10,318" fill="#1D4ED8" />
  <polygon points="576,566 1142,288 1142,318 576,596" fill="#1E40AF" />

  <!-- Studs -->
  <g id="studs-network">
    <use href="#stud-network" x="579.5" y="25.6" />
    <use href="#stud-network" x="614.9" y="43.0" />
    <use href="#stud-network" x="650.3" y="60.4" />
    <use href="#stud-network" x="685.7" y="77.8" />
    <use href="#stud-network" x="721.0" y="95.1" />
    <use href="#stud-network" x="756.4" y="112.5" />
    <use href="#stud-network" x="791.8" y="129.9" />
    <use href="#stud-network" x="827.2" y="147.3" />
    <use href="#stud-network" x="862.5" y="164.6" />
    <use href="#stud-network" x="897.9" y="182.0" />
    <use href="#stud-network" x="933.3" y="199.4" />
    <use href="#stud-network" x="968.7" y="216.8" />
    <use href="#stud-network" x="1004.0" y="234.1" />
    <use href="#stud-network" x="1039.4" y="251.5" />
    <use href="#stud-network" x="1074.8" y="268.9" />
    <use href="#stud-network" x="1110.2" y="286.3" />
    <use href="#stud-network" x="551.2" y="39.5" />
    <use href="#stud-network" x="586.6" y="56.9" />
    <use href="#stud-network" x="622.0" y="74.3" />
    <use href="#stud-network" x="657.4" y="91.7" />
    <use href="#stud-network" x="692.7" y="109.0" />
    <use href="#stud-network" x="728.1" y="126.4" />
    <use href="#stud-network" x="763.5" y="143.8" />
    <use href="#stud-network" x="798.9" y="161.2" />
    <use href="#stud-network" x="834.2" y="178.5" />
    <use href="#stud-network" x="869.6" y="195.9" />
    <use href="#stud-network" x="905.0" y="213.3" />
    <use href="#stud-network" x="940.4" y="230.7" />
    <use href="#stud-network" x="975.7" y="248.0" />
    <use href="#stud-network" x="1011.1" y="265.4" />
    <use href="#stud-network" x="1046.5" y="282.8" />
    <use href="#stud-network" x="1081.9" y="300.2" />
    <use href="#stud-network" x="522.9" y="53.4" />
    <use href="#stud-network" x="558.3" y="70.8" />
    <use href="#stud-network" x="593.7" y="88.2" />
    <use href="#stud-network" x="629.1" y="105.6" />
    <use href="#stud-network" x="664.4" y="122.9" />
    <use href="#stud-network" x="699.8" y="140.3" />
    <use href="#stud-network" x="735.2" y="157.7" />
    <use href="#stud-network" x="770.6" y="175.1" />
    <use href="#stud-network" x="805.9" y="192.4" />
    <use href="#stud-network" x="841.3" y="209.8" />
    <use href="#stud-network" x="876.7" y="227.2" />
    <use href="#stud-network" x="912.1" y="244.6" />
    <use href="#stud-network" x="947.4" y="261.9" />
    <use href="#stud-network" x="982.8" y="279.3" />
    <use href="#stud-network" x="1018.2" y="296.7" />
    <use href="#stud-network" x="1053.6" y="314.1" />
    <use href="#stud-network" x="494.6" y="67.3" />
    <use href="#stud-network" x="530.0" y="84.7" />
    <use href="#stud-network" x="565.4" y="102.1" />
    <use href="#stud-network" x="600.8" y="119.5" />
    <use href="#stud-network" x="636.1" y="136.8" />
    <use href="#stud-network" x="671.5" y="154.2" />
    <use href="#stud-network" x="706.9" y="171.6" />
    <use href="#stud-network" x="742.3" y="189.0" />
    <use href="#stud-network" x="777.6" y="206.3" />
    <use href="#stud-network" x="813.0" y="223.7" />
    <use href="#stud-network" x="848.4" y="241.1" />
    <use href="#stud-network" x="883.8" y="258.5" />
    <use href="#stud-network" x="919.1" y="275.8" />
    <use href="#stud-network" x="954.5" y="293.2" />
    <use href="#stud-network" x="989.9" y="310.6" />
    <use href="#stud-network" x="1025.3" y="328.0" />
    <use href="#stud-network" x="466.3" y="81.2" />
    <use href="#stud-network" x="501.7" y="98.6" />
    <use href="#stud-network" x="537.1" y="116.0" />
    <use href="#stud-network" x="572.5" y="133.4" />
    <use href="#stud-network" x="607.8" y="150.7" />
    <use href="#stud-network" x="643.2" y="168.1" />
    <use href="#stud-network" x="678.6" y="185.5" />
    <use href="#stud-network" x="714.0" y="202.9" />
    <use href="#stud-network" x="749.3" y="220.2" />
    <use href="#stud-network" x="784.7" y="237.6" />
    <use href="#stud-network" x="820.1" y="255.0" />
    <use href="#stud-network" x="855.5" y="272.4" />
    <use href="#stud-network" x="890.8" y="289.7" />
    <use href="#stud-network" x="926.2" y="307.1" />
    <use href="#stud-network" x="961.6" y="324.5" />
    <use href="#stud-network" x="997.0" y="341.9" />
    <use href="#stud-network" x="438.0" y="95.1" />
    <use href="#stud-network" x="473.4" y="112.5" />
    <use href="#stud-network" x="508.8" y="129.9" />
    <use href="#stud-network" x="544.2" y="147.3" />
    <use href="#stud-network" x="579.5" y="164.6" />
    <use href="#stud-network" x="614.9" y="182.0" />
    <use href="#stud-network" x="650.3" y="199.4" />
    <use href="#stud-network" x="685.7" y="216.8" />
    <use href="#stud-network" x="721.0" y="234.1" />
    <use href="#stud-network" x="756.4" y="251.5" />
    <use href="#stud-network" x="791.8" y="268.9" />
    <use href="#stud-network" x="827.2" y="286.3" />
    <use href="#stud-network" x="862.5" y="303.6" />
    <use href="#stud-network" x="897.9" y="321.0" />
    <use href="#stud-network" x="933.3" y="338.4" />
    <use href="#stud-network" x="968.7" y="355.8" />
    <use href="#stud-network" x="409.7" y="109.0" />
    <use href="#stud-network" x="445.1" y="126.4" />
    <use href="#stud-network" x="480.5" y="143.8" />
    <use href="#stud-network" x="515.9" y="161.2" />
    <use href="#stud-network" x="551.2" y="178.5" />
    <use href="#stud-network" x="586.6" y="195.9" />
    <use href="#stud-network" x="622.0" y="213.3" />
    <use href="#stud-network" x="657.4" y="230.7" />
    <use href="#stud-network" x="692.7" y="248.0" />
    <use href="#stud-network" x="728.1" y="265.4" />
    <use href="#stud-network" x="763.5" y="282.8" />
    <use href="#stud-network" x="798.9" y="300.2" />
    <use href="#stud-network" x="834.2" y="317.5" />
    <use href="#stud-network" x="869.6" y="334.9" />
    <use href="#stud-network" x="905.0" y="352.3" />
    <use href="#stud-network" x="940.4" y="369.7" />
    <use href="#stud-network" x="381.4" y="122.9" />
    <use href="#stud-network" x="416.8" y="140.3" />
    <use href="#stud-network" x="452.2" y="157.7" />
    <use href="#stud-network" x="487.6" y="175.1" />
    <use href="#stud-network" x="522.9" y="192.4" />
    <use href="#stud-network" x="558.3" y="209.8" />
    <use href="#stud-network" x="593.7" y="227.2" />
    <use href="#stud-network" x="629.1" y="244.6" />
    <use href="#stud-network" x="664.4" y="261.9" />
    <use href="#stud-network" x="699.8" y="279.3" />
    <use href="#stud-network" x="735.2" y="296.7" />
    <use href="#stud-network" x="770.6" y="314.1" />
    <use href="#stud-network" x="805.9" y="331.4" />
    <use href="#stud-network" x="841.3" y="348.8" />
    <use href="#stud-network" x="876.7" y="366.2" />
    <use href="#stud-network" x="912.1" y="383.6" />
    <use href="#stud-network" x="353.1" y="136.8" />
    <use href="#stud-network" x="388.5" y="154.2" />
    <use href="#stud-network" x="423.9" y="171.6" />
    <use href="#stud-network" x="459.3" y="189.0" />
    <use href="#stud-network" x="494.6" y="206.3" />
    <use href="#stud-network" x="530.0" y="223.7" />
    <use href="#stud-network" x="565.4" y="241.1" />
    <use href="#stud-network" x="600.8" y="258.5" />
    <use href="#stud-network" x="636.1" y="275.8" />
    <use href="#stud-network" x="671.5" y="293.2" />
    <use href="#stud-network" x="706.9" y="310.6" />
    <use href="#stud-network" x="742.3" y="328.0" />
    <use href="#stud-network" x="777.6" y="345.3" />
    <use href="#stud-network" x="813.0" y="362.7" />
    <use href="#stud-network" x="848.4" y="380.1" />
    <use href="#stud-network" x="883.8" y="397.5" />
    <use href="#stud-network" x="324.8" y="150.7" />
    <use href="#stud-network" x="360.2" y="168.1" />
    <use href="#stud-network" x="395.6" y="185.5" />
    <use href="#stud-network" x="431.0" y="202.9" />
    <use href="#stud-network" x="466.3" y="220.2" />
    <use href="#stud-network" x="501.7" y="237.6" />
    <use href="#stud-network" x="537.1" y="255.0" />
    <use href="#stud-network" x="572.5" y="272.4" />
    <use href="#stud-network" x="607.8" y="289.7" />
    <use href="#stud-network" x="643.2" y="307.1" />
    <use href="#stud-network" x="678.6" y="324.5" />
    <use href="#stud-network" x="714.0" y="341.9" />
    <use href="#stud-network" x="749.3" y="359.2" />
    <use href="#stud-network" x="784.7" y="376.6" />
    <use href="#stud-network" x="820.1" y="394.0" />
    <use href="#stud-network" x="855.5" y="411.4" />
    <use href="#stud-network" x="296.5" y="164.6" />
    <use href="#stud-network" x="331.9" y="182.0" />
    <use href="#stud-network" x="367.3" y="199.4" />
    <use href="#stud-network" x="402.7" y="216.8" />
    <use href="#stud-network" x="438.0" y="234.1" />
    <use href="#stud-network" x="473.4" y="251.5" />
    <use href="#stud-network" x="508.8" y="268.9" />
    <use href="#stud-network" x="544.2" y="286.3" />
    <use href="#stud-network" x="579.5" y="303.6" />
    <use href="#stud-network" x="614.9" y="321.0" />
    <use href="#stud-network" x="650.3" y="338.4" />
    <use href="#stud-network" x="685.7" y="355.8" />
    <use href="#stud-network" x="721.0" y="373.1" />
    <use href="#stud-network" x="756.4" y="390.5" />
    <use href="#stud-network" x="791.8" y="407.9" />
    <use href="#stud-network" x="827.2" y="425.3" />
    <use href="#stud-network" x="268.2" y="178.5" />
    <use href="#stud-network" x="303.6" y="195.9" />
    <use href="#stud-network" x="339.0" y="213.3" />
    <use href="#stud-network" x="374.4" y="230.7" />
    <use href="#stud-network" x="409.7" y="248.0" />
    <use href="#stud-network" x="445.1" y="265.4" />
    <use href="#stud-network" x="480.5" y="282.8" />
    <use href="#stud-network" x="515.9" y="300.2" />
    <use href="#stud-network" x="551.2" y="317.5" />
    <use href="#stud-network" x="586.6" y="334.9" />
    <use href="#stud-network" x="622.0" y="352.3" />
    <use href="#stud-network" x="657.4" y="369.7" />
    <use href="#stud-network" x="692.7" y="387.0" />
    <use href="#stud-network" x="728.1" y="404.4" />
    <use href="#stud-network" x="763.5" y="421.8" />
    <use href="#stud-network" x="798.9" y="439.2" />
    <use href="#stud-network" x="239.9" y="192.4" />
    <use href="#stud-network" x="275.3" y="209.8" />
    <use href="#stud-network" x="310.7" y="227.2" />
    <use href="#stud-network" x="346.1" y="244.6" />
    <use href="#stud-network" x="381.4" y="261.9" />
    <use href="#stud-network" x="416.8" y="279.3" />
    <use href="#stud-network" x="452.2" y="296.7" />
    <use href="#stud-network" x="487.6" y="314.1" />
    <use href="#stud-network" x="522.9" y="331.4" />
    <use href="#stud-network" x="558.3" y="348.8" />
    <use href="#stud-network" x="593.7" y="366.2" />
    <use href="#stud-network" x="629.1" y="383.6" />
    <use href="#stud-network" x="664.4" y="400.9" />
    <use href="#stud-network" x="699.8" y="418.3" />
    <use href="#stud-network" x="735.2" y="435.7" />
    <use href="#stud-network" x="770.6" y="453.1" />
    <use href="#stud-network" x="211.6" y="206.3" />
    <use href="#stud-network" x="247.0" y="223.7" />
    <use href="#stud-network" x="282.4" y="241.1" />
    <use href="#stud-network" x="317.8" y="258.5" />
    <use href="#stud-network" x="353.1" y="275.8" />
    <use href="#stud-network" x="388.5" y="293.2" />
    <use href="#stud-network" x="423.9" y="310.6" />
    <use href="#stud-network" x="459.3" y="328.0" />
    <use href="#stud-network" x="494.6" y="345.3" />
    <use href="#stud-network" x="530.0" y="362.7" />
    <use href="#stud-network" x="565.4" y="380.1" />
    <use href="#stud-network" x="600.8" y="397.5" />
    <use href="#stud-network" x="636.1" y="414.8" />
    <use href="#stud-network" x="671.5" y="432.2" />
    <use href="#stud-network" x="706.9" y="449.6" />
    <use href="#stud-network" x="742.3" y="467.0" />
    <use href="#stud-network" x="183.3" y="220.2" />
    <use href="#stud-network" x="218.7" y="237.6" />
    <use href="#stud-network" x="254.1" y="255.0" />
    <use href="#stud-network" x="289.5" y="272.4" />
    <use href="#stud-network" x="324.8" y="289.7" />
    <use href="#stud-network" x="360.2" y="307.1" />
    <use href="#stud-network" x="395.6" y="324.5" />
    <use href="#stud-network" x="431.0" y="341.9" />
    <use href="#stud-network" x="466.3" y="359.2" />
    <use href="#stud-network" x="501.7" y="376.6" />
    <use href="#stud-network" x="537.1" y="394.0" />
    <use href="#stud-network" x="572.5" y="411.4" />
    <use href="#stud-network" x="607.8" y="428.7" />
    <use href="#stud-network" x="643.2" y="446.1" />
    <use href="#stud-network" x="678.6" y="463.5" />
    <use href="#stud-network" x="714.0" y="480.9" />
    <use href="#stud-network" x="155.0" y="234.1" />
    <use href="#stud-network" x="190.4" y="251.5" />
    <use href="#stud-network" x="225.8" y="268.9" />
    <use href="#stud-network" x="261.2" y="286.3" />
    <use href="#stud-network" x="296.5" y="303.6" />
    <use href="#stud-network" x="331.9" y="321.0" />
    <use href="#stud-network" x="367.3" y="338.4" />
    <use href="#stud-network" x="402.7" y="355.8" />
    <use href="#stud-network" x="438.0" y="373.1" />
    <use href="#stud-network" x="473.4" y="390.5" />
    <use href="#stud-network" x="508.8" y="407.9" />
    <use href="#stud-network" x="544.2" y="425.3" />
    <use href="#stud-network" x="579.5" y="442.6" />
    <use href="#stud-network" x="614.9" y="460.0" />
    <use href="#stud-network" x="650.3" y="477.4" />
    <use href="#stud-network" x="685.7" y="494.8" />
    <use href="#stud-network" x="126.7" y="248.0" />
    <use href="#stud-network" x="162.1" y="265.4" />
    <use href="#stud-network" x="197.5" y="282.8" />
    <use href="#stud-network" x="232.9" y="300.2" />
    <use href="#stud-network" x="268.2" y="317.5" />
    <use href="#stud-network" x="303.6" y="334.9" />
    <use href="#stud-network" x="339.0" y="352.3" />
    <use href="#stud-network" x="374.4" y="369.7" />
    <use href="#stud-network" x="409.7" y="387.0" />
    <use href="#stud-network" x="445.1" y="404.4" />
    <use href="#stud-network" x="480.5" y="421.8" />
    <use href="#stud-network" x="515.9" y="439.2" />
    <use href="#stud-network" x="551.2" y="456.5" />
    <use href="#stud-network" x="586.6" y="473.9" />
    <use href="#stud-network" x="622.0" y="491.3" />
    <use href="#stud-network" x="657.4" y="508.7" />
    <use href="#stud-network" x="98.4" y="261.9" />
    <use href="#stud-network" x="133.8" y="279.3" />
    <use href="#stud-network" x="169.2" y="296.7" />
    <use href="#stud-network" x="204.6" y="314.1" />
    <use href="#stud-network" x="239.9" y="331.4" />
    <use href="#stud-network" x="275.3" y="348.8" />
    <use href="#stud-network" x="310.7" y="366.2" />
    <use href="#stud-network" x="346.1" y="383.6" />
    <use href="#stud-network" x="381.4" y="400.9" />
    <use href="#stud-network" x="416.8" y="418.3" />
    <use href="#stud-network" x="452.2" y="435.7" />
    <use href="#stud-network" x="487.6" y="453.1" />
    <use href="#stud-network" x="522.9" y="470.4" />
    <use href="#stud-network" x="558.3" y="487.8" />
    <use href="#stud-network" x="593.7" y="505.2" />
    <use href="#stud-network" x="629.1" y="522.6" />
    <use href="#stud-network" x="70.1" y="275.8" />
    <use href="#stud-network" x="105.5" y="293.2" />
    <use href="#stud-network" x="140.9" y="310.6" />
    <use href="#stud-network" x="176.3" y="328.0" />
    <use href="#stud-network" x="211.6" y="345.3" />
    <use href="#stud-network" x="247.0" y="362.7" />
    <use href="#stud-network" x="282.4" y="380.1" />
    <use href="#stud-network" x="317.8" y="397.5" />
    <use href="#stud-network" x="353.1" y="414.8" />
    <use href="#stud-network" x="388.5" y="432.2" />
    <use href="#stud-network" x="423.9" y="449.6" />
    <use href="#stud-network" x="459.3" y="467.0" />
    <use href="#stud-network" x="494.6" y="484.3" />
    <use href="#stud-network" x="530.0" y="501.7" />
    <use href="#stud-network" x="565.4" y="519.1" />
    <use href="#stud-network" x="600.8" y="536.5" />
    <use href="#stud-network" x="41.8" y="289.7" />
    <use href="#stud-network" x="77.2" y="307.1" />
    <use href="#stud-network" x="112.6" y="324.5" />
    <use href="#stud-network" x="148.0" y="341.9" />
    <use href="#stud-network" x="183.3" y="359.2" />
    <use href="#stud-network" x="218.7" y="376.6" />
    <use href="#stud-network" x="254.1" y="394.0" />
    <use href="#stud-network" x="289.5" y="411.4" />
    <use href="#stud-network" x="324.8" y="428.7" />
    <use href="#stud-network" x="360.2" y="446.1" />
    <use href="#stud-network" x="395.6" y="463.5" />
    <use href="#stud-network" x="431.0" y="480.9" />
    <use href="#stud-network" x="466.3" y="498.2" />
    <use href="#stud-network" x="501.7" y="515.6" />
    <use href="#stud-network" x="537.1" y="533.0" />
    <use href="#stud-network" x="572.5" y="550.4" />
  </g>
  <text transform="matrix(0.8975,0.4410,0,1,293,442)" font-family="system-ui, -apple-system, sans-serif" font-size="18" font-weight="700" fill="#ffffff" fill-opacity="0.9" text-anchor="middle" dominant-baseline="middle">Virtual Network</text>
  <text transform="matrix(0.8975,-0.4410,0,1,859,442)" font-family="system-ui, -apple-system, sans-serif" font-size="24" text-anchor="middle" dominant-baseline="middle">🌐</text>
</svg>
