<svg viewBox="0 0 448 254" xmlns="http://www.w3.org/2000/svg">
  <defs>
    <g id="stud-private-subnet">
      <ellipse cx="0" cy="5" rx="12" ry="6" fill="#B91C1C" />
      <ellipse cx="0" cy="0" rx="12" ry="6" fill="#F87171" />
      <ellipse cx="0" cy="0" rx="7.2" ry="3.6" fill="#FCA5A5" opacity="0.3" />
    </g>
  </defs>

  <!-- Faces -->
  <polygon points="224,10 438,112 224,214 10,112" fill="#DC2626" stroke="#F87171" stroke-width="1" stroke-opacity="0.6" />
  <polygon points="10,112 224,214 224,244 10,142" fill="#B91C1C" />
  <polygon points="224,214 438,112 438,142 224,244" fill="#991B1B" />

  <!-- Studs -->
  <g id="studs-private-subnet">
    <use href="#stud-private-subnet" x="228.5" y="24.9" />
    <use href="#stud-private-subnet" x="264.1" y="41.9" />
    <use href="#stud-private-subnet" x="299.8" y="58.9" />
    <use href="#stud-private-subnet" x="335.5" y="75.9" />
    <use href="#stud-private-subnet" x="371.1" y="92.9" />
    <use href="#stud-private-subnet" x="406.8" y="109.9" />
    <use href="#stud-private-subnet" x="201.7" y="37.6" />
    <use href="#stud-private-subnet" x="237.4" y="54.6" />
    <use href="#stud-private-subnet" x="273.0" y="71.6" />
    <use href="#stud-private-subnet" x="308.7" y="88.6" />
    <use href="#stud-private-subnet" x="344.4" y="105.6" />
    <use href="#stud-private-subnet" x="380.0" y="122.6" />
    <use href="#stud-private-subnet" x="175.0" y="50.4" />
    <use href="#stud-private-subnet" x="210.6" y="67.4" />
    <use href="#stud-private-subnet" x="246.3" y="84.4" />
    <use href="#stud-private-subnet" x="282.0" y="101.4" />
    <use href="#stud-private-subnet" x="317.6" y="118.4" />
    <use href="#stud-private-subnet" x="353.3" y="135.4" />
    <use href="#stud-private-subnet" x="148.2" y="63.1" />
    <use href="#stud-private-subnet" x="183.9" y="80.1" />
    <use href="#stud-private-subnet" x="219.5" y="97.1" />
    <use href="#stud-private-subnet" x="255.2" y="114.1" />
    <use href="#stud-private-subnet" x="290.9" y="131.1" />
    <use href="#stud-private-subnet" x="326.5" y="148.1" />
    <use href="#stud-private-subnet" x="121.5" y="75.9" />
    <use href="#stud-private-subnet" x="157.1" y="92.9" />
    <use href="#stud-private-subnet" x="192.8" y="109.9" />
    <use href="#stud-private-subnet" x="228.5" y="126.9" />
    <use href="#stud-private-subnet" x="264.1" y="143.9" />
    <use href="#stud-private-subnet" x="299.8" y="160.9" />
    <use href="#stud-private-subnet" x="94.7" y="88.6" />
    <use href="#stud-private-subnet" x="130.4" y="105.6" />
    <use href="#stud-private-subnet" x="166.0" y="122.6" />
    <use href="#stud-private-subnet" x="201.7" y="139.6" />
    <use href="#stud-private-subnet" x="237.4" y="156.6" />
    <use href="#stud-private-subnet" x="273.0" y="173.6" />
    <use href="#stud-private-subnet" x="68.0" y="101.4" />
    <use href="#stud-private-subnet" x="103.6" y="118.4" />
    <use href="#stud-private-subnet" x="139.3" y="135.4" />
    <use href="#stud-private-subnet" x="175.0" y="152.4" />
    <use href="#stud-private-subnet" x="210.6" y="169.4" />
    <use href="#stud-private-subnet" x="246.3" y="186.4" />
    <use href="#stud-private-subnet" x="41.2" y="114.1" />
    <use href="#stud-private-subnet" x="76.9" y="131.1" />
    <use href="#stud-private-subnet" x="112.5" y="148.1" />
    <use href="#stud-private-subnet" x="148.2" y="165.1" />
    <use href="#stud-private-subnet" x="183.9" y="182.1" />
    <use href="#stud-private-subnet" x="219.5" y="199.1" />
  </g>
  <text transform="matrix(0.9030,0.4304,0,1,117,178)" font-family="system-ui, -apple-system, sans-serif" font-size="14" font-weight="700" fill="#ffffff" fill-opacity="0.9" text-anchor="middle" dominant-baseline="middle">Private Subnet</text>
  <text transform="matrix(0.9030,-0.4304,0,1,331,178)" font-family="system-ui, -apple-system, sans-serif" font-size="18" text-anchor="middle" dominant-baseline="middle">🔒</text>
</svg>
