<svg xmlns="http://www.w3.org/2000/svg" viewBox="0 0 120 140">
  <g>
    <!-- Left face (dark green) -->
    <polygon points="10,25 10,45 60,70 60,50" fill="#1B5E20" />
    <!-- Right face (medium green) -->
    <polygon points="60,50 60,70 110,45 110,25" fill="#2E7D32" />
    <!-- Top face (light green) -->
    <polygon points="60,0 10,25 60,50 110,25" fill="#43A047" />
    
    <!-- Studs on top face -->
    <g transform="translate(35, 12)">
      <ellipse cx="0" cy="0" rx="8" ry="4" fill="#43A047" />
      <path d="M -8 0 L -8 -3 A 8 4 0 0 1 8 -3 L 8 0 A 8 4 0 0 1 -8 0 Z" fill="#1B5E20" />
      <ellipse cx="0" cy="-3" rx="8" ry="4" fill="#66BB6A" />
    </g>
    <g transform="translate(55, 22)">
      <ellipse cx="0" cy="0" rx="8" ry="4" fill="#43A047" />
      <path d="M -8 0 L -8 -3 A 8 4 0 0 1 8 -3 L 8 0 A 8 4 0 0 1 -8 0 Z" fill="#1B5E20" />
      <ellipse cx="0" cy="-3" rx="8" ry="4" fill="#66BB6A" />
    </g>
    <g transform="translate(65, 12)">
      <ellipse cx="0" cy="0" rx="8" ry="4" fill="#43A047" />
      <path d="M -8 0 L -8 -3 A 8 4 0 0 1 8 -3 L 8 0 A 8 4 0 0 1 -8 0 Z" fill="#1B5E20" />
      <ellipse cx="0" cy="-3" rx="8" ry="4" fill="#66BB6A" />
    </g>
    <g transform="translate(85, 22)">
      <ellipse cx="0" cy="0" rx="8" ry="4" fill="#43A047" />
      <path d="M -8 0 L -8 -3 A 8 4 0 0 1 8 -3 L 8 0 A 8 4 0 0 1 -8 0 Z" fill="#1B5E20" />
      <ellipse cx="0" cy="-3" rx="8" ry="4" fill="#66BB6A" />
    </g>
    <g transform="translate(45, 32)">
      <ellipse cx="0" cy="0" rx="8" ry="4" fill="#43A047" />
      <path d="M -8 0 L -8 -3 A 8 4 0 0 1 8 -3 L 8 0 A 8 4 0 0 1 -8 0 Z" fill="#1B5E20" />
      <ellipse cx="0" cy="-3" rx="8" ry="4" fill="#66BB6A" />
    </g>
    <g transform="translate(75, 32)">
      <ellipse cx="0" cy="0" rx="8" ry="4" fill="#43A047" />
      <path d="M -8 0 L -8 -3 A 8 4 0 0 1 8 -3 L 8 0 A 8 4 0 0 1 -8 0 Z" fill="#1B5E20" />
      <ellipse cx="0" cy="-3" rx="8" ry="4" fill="#66BB6A" />
    </g>
    
    <!-- Label on left face -->
    <g transform="translate(18, 52) skewY(-26.565) scale(0.75)">
      <text
        x="0"
        y="0"
        fill="#FFFFFF"
        fill-opacity="0.94"
        font-family="Fredoka, 'Varela Round', Arial, sans-serif"
        font-size="10"
        font-weight="800"
      >
        PUBLIC
      </text>
    </g>

    <!-- Globe/internet icon on right face -->
    <g transform="translate(82, 48) skewY(26.565) scale(0.7)">
      <circle cx="0" cy="0" r="9" fill="none" stroke="#FFFFFF" stroke-opacity="0.9" stroke-width="2" />
      <ellipse cx="0" cy="0" rx="4" ry="9" fill="none" stroke="#FFFFFF" stroke-opacity="0.9" stroke-width="1.5" />
      <line x1="-9" y1="0" x2="9" y2="0" stroke="#FFFFFF" stroke-opacity="0.9" stroke-width="1.5" />
    </g>
  </g>
</svg>
