<svg xmlns="http://www.w3.org/2000/svg" viewBox="0 0 280 169">
  <g>
    <!-- Left face -->
    <polygon points="0,83.0 140.0,166 140.0,169 0,86.0" fill="#283593" />
    <!-- Right face -->
    <polygon points="140.0,166 280,83.0 280,86.0 140.0,169" fill="#3949AB" />
    <!-- Top face -->
    <polygon points="140.0,0 0,83.0 140.0,166 280,83.0" fill="#5C6BC0" />
    
    <!-- Studs -->
    <g transform="translate(103.3, 45.3)">
      <ellipse cx="0" cy="0" rx="6.7" ry="3.3" fill="#5C6BC0" />
      <path d="M -6.7 0 L -6.7 -5.0 A 6.7 3.3 0 0 1 6.7 -5.0 L 6.7 0 A 6.7 3.3 0 0 1 -6.7 0 Z" fill="#283593" />
      <ellipse cx="0" cy="-5.0" rx="6.7" ry="3.3" fill="#7986CB" />
    </g>
    <g transform="translate(90.0, 53.2)">
      <ellipse cx="0" cy="0" rx="6.7" ry="3.3" fill="#5C6BC0" />
      <path d="M -6.7 0 L -6.7 -5.0 A 6.7 3.3 0 0 1 6.7 -5.0 L 6.7 0 A 6.7 3.3 0 0 1 -6.7 0 Z" fill="#283593" />
      <ellipse cx="0" cy="-5.0" rx="6.7" ry="3.3" fill="#7986CB" />
    </g>
    <g transform="translate(76.7, 61.2)">
      <ellipse cx="0" cy="0" rx="6.7" ry="3.3" fill="#5C6BC0" />
      <path d="M -6.7 0 L -6.7 -5.0 A 6.7 3.3 0 0 1 6.7 -5.0 L 6.7 0 A 6.7 3.3 0 0 1 -6.7 0 Z" fill="#283593" />
      <ellipse cx="0" cy="-5.0" rx="6.7" ry="3.3" fill="#7986CB" />
    </g>
    <g transform="translate(123.3, 57.2)">
      <ellipse cx="0" cy="0" rx="6.7" ry="3.3" fill="#5C6BC0" />
      <path d="M -6.7 0 L -6.7 -5.0 A 6.7 3.3 0 0 1 6.7 -5.0 L 6.7 0 A 6.7 3.3 0 0 1 -6.7 0 Z" fill="#283593" />
      <ellipse cx="0" cy="-5.0" rx="6.7" ry="3.3" fill="#7986CB" />
    </g>
    <g transform="translate(110.0, 65.2)">
      <ellipse cx="0" cy="0" rx="6.7" ry="3.3" fill="#5C6BC0" />
      <path d="M -6.7 0 L -6.7 -5.0 A 6.7 3.3 0 0 1 6.7 -5.0 L 6.7 0 A 6.7 3.3 0 0 1 -6.7 0 Z" fill="#283593" />
      <ellipse cx="0" cy="-5.0" rx="6.7" ry="3.3" fill="#7986CB" />
    </g>
    <g transform="translate(96.7, 73.1)">
      <ellipse cx="0" cy="0" rx="6.7" ry="3.3" fill="#5C6BC0" />
      <path d="M -6.7 0 L -6.7 -5.0 A 6.7 3.3 0 0 1 6.7 -5.0 L 6.7 0 A 6.7 3.3 0 0 1 -6.7 0 Z" fill="#283593" />
      <ellipse cx="0" cy="-5.0" rx="6.7" ry="3.3" fill="#7986CB" />
    </g>
    <g transform="translate(143.3, 69.1)">
      <ellipse cx="0" cy="0" rx="6.7" ry="3.3" fill="#5C6BC0" />
      <path d="M -6.7 0 L -6.7 -5.0 A 6.7 3.3 0 0 1 6.7 -5.0 L 6.7 0 A 6.7 3.3 0 0 1 -6.7 0 Z" fill="#283593" />
      <ellipse cx="0" cy="-5.0" rx="6.7" ry="3.3" fill="#7986CB" />
    </g>
    <g transform="translate(130.0, 77.0)">
      <ellipse cx="0" cy="0" rx="6.7" ry="3.3" fill="#5C6BC0" />
      <path d="M -6.7 0 L -6.7 -5.0 A 6.7 3.3 0 0 1 6.7 -5.0 L 6.7 0 A 6.7 3.3 0 0 1 -6.7 0 Z" fill="#283593" />
      <ellipse cx="0" cy="-5.0" rx="6.7" ry="3.3" fill="#7986CB" />
    </g>
    <g transform="translate(116.7, 85.0)">
      <ellipse cx="0" cy="0" rx="6.7" ry="3.3" fill="#5C6BC0" />
      <path d="M -6.7 0 L -6.7 -5.0 A 6.7 3.3 0 0 1 6.7 -5.0 L 6.7 0 A 6.7 3.3 0 0 1 -6.7 0 Z" fill="#283593" />
      <ellipse cx="0" cy="-5.0" rx="6.7" ry="3.3" fill="#7986CB" />
    </g>
    <g transform="translate(163.3, 81.0)">
      <ellipse cx="0" cy="0" rx="6.7" ry="3.3" fill="#5C6BC0" />
      <path d="M -6.7 0 L -6.7 -5.0 A 6.7 3.3 0 0 1 6.7 -5.0 L 6.7 0 A 6.7 3.3 0 0 1 -6.7 0 Z" fill="#283593" />
      <ellipse cx="0" cy="-5.0" rx="6.7" ry="3.3" fill="#7986CB" />
    </g>
    <g transform="translate(150.0, 89.0)">
      <ellipse cx="0" cy="0" rx="6.7" ry="3.3" fill="#5C6BC0" />
      <path d="M -6.7 0 L -6.7 -5.0 A 6.7 3.3 0 0 1 6.7 -5.0 L 6.7 0 A 6.7 3.3 0 0 1 -6.7 0 Z" fill="#283593" />
      <ellipse cx="0" cy="-5.0" rx="6.7" ry="3.3" fill="#7986CB" />
    </g>
    <g transform="translate(136.7, 96.9)">
      <ellipse cx="0" cy="0" rx="6.7" ry="3.3" fill="#5C6BC0" />
      <path d="M -6.7 0 L -6.7 -5.0 A 6.7 3.3 0 0 1 6.7 -5.0 L 6.7 0 A 6.7 3.3 0 0 1 -6.7 0 Z" fill="#283593" />
      <ellipse cx="0" cy="-5.0" rx="6.7" ry="3.3" fill="#7986CB" />
    </g>
    <g transform="translate(183.3, 92.9)">
      <ellipse cx="0" cy="0" rx="6.7" ry="3.3" fill="#5C6BC0" />
      <path d="M -6.7 0 L -6.7 -5.0 A 6.7 3.3 0 0 1 6.7 -5.0 L 6.7 0 A 6.7 3.3 0 0 1 -6.7 0 Z" fill="#283593" />
      <ellipse cx="0" cy="-5.0" rx="6.7" ry="3.3" fill="#7986CB" />
    </g>
    <g transform="translate(170.0, 100.8)">
      <ellipse cx="0" cy="0" rx="6.7" ry="3.3" fill="#5C6BC0" />
      <path d="M -6.7 0 L -6.7 -5.0 A 6.7 3.3 0 0 1 6.7 -5.0 L 6.7 0 A 6.7 3.3 0 0 1 -6.7 0 Z" fill="#283593" />
      <ellipse cx="0" cy="-5.0" rx="6.7" ry="3.3" fill="#7986CB" />
    </g>
    <g transform="translate(156.7, 108.8)">
      <ellipse cx="0" cy="0" rx="6.7" ry="3.3" fill="#5C6BC0" />
      <path d="M -6.7 0 L -6.7 -5.0 A 6.7 3.3 0 0 1 6.7 -5.0 L 6.7 0 A 6.7 3.3 0 0 1 -6.7 0 Z" fill="#283593" />
      <ellipse cx="0" cy="-5.0" rx="6.7" ry="3.3" fill="#7986CB" />
    </g>
    <g transform="translate(203.3, 104.8)">
      <ellipse cx="0" cy="0" rx="6.7" ry="3.3" fill="#5C6BC0" />
      <path d="M -6.7 0 L -6.7 -5.0 A 6.7 3.3 0 0 1 6.7 -5.0 L 6.7 0 A 6.7 3.3 0 0 1 -6.7 0 Z" fill="#283593" />
      <ellipse cx="0" cy="-5.0" rx="6.7" ry="3.3" fill="#7986CB" />
    </g>
    <g transform="translate(190.0, 112.8)">
      <ellipse cx="0" cy="0" rx="6.7" ry="3.3" fill="#5C6BC0" />
      <path d="M -6.7 0 L -6.7 -5.0 A 6.7 3.3 0 0 1 6.7 -5.0 L 6.7 0 A 6.7 3.3 0 0 1 -6.7 0 Z" fill="#283593" />
      <ellipse cx="0" cy="-5.0" rx="6.7" ry="3.3" fill="#7986CB" />
    </g>
    <g transform="translate(176.7, 120.7)">
      <ellipse cx="0" cy="0" rx="6.7" ry="3.3" fill="#5C6BC0" />
      <path d="M -6.7 0 L -6.7 -5.0 A 6.7 3.3 0 0 1 6.7 -5.0 L 6.7 0 A 6.7 3.3 0 0 1 -6.7 0 Z" fill="#283593" />
      <ellipse cx="0" cy="-5.0" rx="6.7" ry="3.3" fill="#7986CB" />
    </g>
  </g>
</svg>
