<svg xmlns="http://www.w3.org/2000/svg" viewBox="0 0 222 190">
  <!-- Left face -->
  <polygon points="11.1,75.0 111.0,124.95 111.0,142.95 11.1,93.0" fill="#D93B0B" />
  <!-- Right face -->
  <polygon points="111.0,124.95 210.9,75.0 210.9,93.0 111.0,142.95" fill="#E04418" />
  
  <!-- Text on left face -->
  <text transform="translate(61.05, 108.975) rotate(26.56505117707799)" font-family="system-ui, -apple-system, sans-serif" font-size="13" font-weight="600" fill="#ffffff" fill-opacity="0.9" text-anchor="middle" dominant-baseline="middle">🖥️ VM</text>
  <!-- Top face -->
  <polygon points="111.0,25.05 210.9,75.0 111.0,124.95 11.1,75.0" fill="#F25022" />
  
  <!-- Subtle highlight on top-left edge -->
  <line x1="11.1" y1="75.0" x2="111.0" y2="25.05" stroke="#ffffff" stroke-width="2" stroke-opacity="0.3" />
  
  <!-- Stud grid -->
  <!-- c=0, r=0 -->
  <path d="M 103.1625 29.6187 L 103.1625 34.6187 A 12 6 0 0 0 127.1625 34.6187 L 127.1625 29.6187 Z" fill="#e34113" />
  <ellipse cx="115.1625" cy="29.6187" rx="12" ry="6" fill="#ff693b" />
  <ellipse cx="115.1625" cy="29.6187" rx="7.2" ry="3.6" fill="#F25022" fill-opacity="0.7" stroke="#e34113" stroke-width="1" />
  
  <!-- c=1, r=0 -->
  <path d="M 136.4625 46.2688 L 136.4625 51.2688 A 12 6 0 0 0 160.4625 51.2688 L 160.4625 46.2688 Z" fill="#e34113" />
  <ellipse cx="148.4625" cy="46.2688" rx="12" ry="6" fill="#ff693b" />
  <ellipse cx="148.4625" cy="46.2688" rx="7.2" ry="3.6" fill="#F25022" fill-opacity="0.7" stroke="#e34113" stroke-width="1" />
  
  <!-- c=2, r=0 -->
  <path d="M 169.7625 62.9188 L 169.7625 67.9188 A 12 6 0 0 0 193.7625 67.9188 L 193.7625 62.9188 Z" fill="#e34113" />
  <ellipse cx="181.7625" cy="62.9188" rx="12" ry="6" fill="#ff693b" />
  <ellipse cx="181.7625" cy="62.9188" rx="7.2" ry="3.6" fill="#F25022" fill-opacity="0.7" stroke="#e34113" stroke-width="1" />
  
  <!-- c=0, r=1 -->
  <path d="M 78.1875 42.1063 L 78.1875 47.1063 A 12 6 0 0 0 102.1875 47.1063 L 102.1875 42.1063 Z" fill="#e34113" />
  <ellipse cx="90.1875" cy="42.1063" rx="12" ry="6" fill="#ff693b" />
  <ellipse cx="90.1875" cy="42.1063" rx="7.2" ry="3.6" fill="#F25022" fill-opacity="0.7" stroke="#e34113" stroke-width="1" />
  
  <!-- c=1, r=1 -->
  <path d="M 111.4875 58.7563 L 111.4875 63.7563 A 12 6 0 0 0 135.4875 63.7563 L 135.4875 58.7563 Z" fill="#e34113" />
  <ellipse cx="123.4875" cy="58.7563" rx="12" ry="6" fill="#ff693b" />
  <ellipse cx="123.4875" cy="58.7563" rx="7.2" ry="3.6" fill="#F25022" fill-opacity="0.7" stroke="#e34113" stroke-width="1" />
  
  <!-- c=2, r=1 -->
  <path d="M 144.7875 75.4063 L 144.7875 80.4063 A 12 6 0 0 0 168.7875 80.4063 L 168.7875 75.4063 Z" fill="#e34113" />
  <ellipse cx="156.7875" cy="75.4063" rx="12" ry="6" fill="#ff693b" />
  <ellipse cx="156.7875" cy="75.4063" rx="7.2" ry="3.6" fill="#F25022" fill-opacity="0.7" stroke="#e34113" stroke-width="1" />
  
  <!-- c=0, r=2 -->
  <path d="M 53.2125 54.5938 L 53.2125 59.5938 A 12 6 0 0 0 77.2125 59.5938 L 77.2125 54.5938 Z" fill="#e34113" />
  <ellipse cx="65.2125" cy="54.5938" rx="12" ry="6" fill="#ff693b" />
  <ellipse cx="65.2125" cy="54.5938" rx="7.2" ry="3.6" fill="#F25022" fill-opacity="0.7" stroke="#e34113" stroke-width="1" />
  
  <!-- c=1, r=2 -->
  <path d="M 86.5125 71.2438 L 86.5125 76.2438 A 12 6 0 0 0 110.5125 76.2438 L 110.5125 71.2438 Z" fill="#e34113" />
  <ellipse cx="98.5125" cy="71.2438" rx="12" ry="6" fill="#ff693b" />
  <ellipse cx="98.5125" cy="71.2438" rx="7.2" ry="3.6" fill="#F25022" fill-opacity="0.7" stroke="#e34113" stroke-width="1" />
  
  <!-- c=2, r=2 -->
  <path d="M 119.8125 87.8938 L 119.8125 92.8938 A 12 6 0 0 0 143.8125 92.8938 L 143.8125 87.8938 Z" fill="#e34113" />
  <ellipse cx="131.8125" cy="87.8938" rx="12" ry="6" fill="#ff693b" />
  <ellipse cx="131.8125" cy="87.8938" rx="7.2" ry="3.6" fill="#F25022" fill-opacity="0.7" stroke="#e34113" stroke-width="1" />
  
  <!-- c=0, r=3 -->
  <path d="M 28.2375 67.0813 L 28.2375 72.0813 A 12 6 0 0 0 52.2375 72.0813 L 52.2375 67.0813 Z" fill="#e34113" />
  <ellipse cx="40.2375" cy="67.0813" rx="12" ry="6" fill="#ff693b" />
  <ellipse cx="40.2375" cy="67.0813" rx="7.2" ry="3.6" fill="#F25022" fill-opacity="0.7" stroke="#e34113" stroke-width="1" />
  
  <!-- c=1, r=3 -->
  <path d="M 61.5375 83.7313 L 61.5375 88.7313 A 12 6 0 0 0 85.5375 88.7313 L 85.5375 83.7313 Z" fill="#e34113" />
  <ellipse cx="73.5375" cy="83.7313" rx="12" ry="6" fill="#ff693b" />
  <ellipse cx="73.5375" cy="83.7313" rx="7.2" ry="3.6" fill="#F25022" fill-opacity="0.7" stroke="#e34113" stroke-width="1" />
  
  <!-- c=2, r=3 -->
  <path d="M 94.8375 100.3813 L 94.8375 105.3813 A 12 6 0 0 0 118.8375 105.3813 L 118.8375 100.3813 Z" fill="#e34113" />
  <ellipse cx="106.8375" cy="100.3813" rx="12" ry="6" fill="#ff693b" />
  <ellipse cx="106.8375" cy="100.3813" rx="7.2" ry="3.6" fill="#F25022" fill-opacity="0.7" stroke="#e34113" stroke-width="1" />
</svg>
