<svg xmlns="http://www.w3.org/2000/svg" viewBox="0 0 120 140">
  <g>
    <polygon points="10,25 10,65 60,90 60,50" fill="#001064" />
    <polygon points="60,50 60,90 110,65 110,25" fill="#002a7e" />
    <polygon points="60,0 10,25 60,50 110,25" fill="#0050A4" />
    
    
      <g transform="translate(42, 15)">
        <ellipse cx="0" cy="0" rx="14" ry="7" fill="#0050A4" />
        <path d="M -14 0 L -14 -6 A 14 7 0 0 1 14 -6 L 14 0 A 14 7 0 0 1 -14 0 Z" fill="#001d71" />
        <ellipse cx="0" cy="-6" rx="14" ry="7" fill="#1969bd" />
      </g>
    
      <g transform="translate(78, 15)">
        <ellipse cx="0" cy="0" rx="14" ry="7" fill="#0050A4" />
        <path d="M -14 0 L -14 -6 A 14 7 0 0 1 14 -6 L 14 0 A 14 7 0 0 1 -14 0 Z" fill="#001d71" />
        <ellipse cx="0" cy="-6" rx="14" ry="7" fill="#1969bd" />
      </g>
    
      <g transform="translate(42, 33)">
        <ellipse cx="0" cy="0" rx="14" ry="7" fill="#0050A4" />
        <path d="M -14 0 L -14 -6 A 14 7 0 0 1 14 -6 L 14 0 A 14 7 0 0 1 -14 0 Z" fill="#001d71" />
        <ellipse cx="0" cy="-6" rx="14" ry="7" fill="#1969bd" />
      </g>
    
      <g transform="translate(78, 33)">
        <ellipse cx="0" cy="0" rx="14" ry="7" fill="#0050A4" />
        <path d="M -14 0 L -14 -6 A 14 7 0 0 1 14 -6 L 14 0 A 14 7 0 0 1 -14 0 Z" fill="#001d71" />
        <ellipse cx="0" cy="-6" rx="14" ry="7" fill="#1969bd" />
      </g>
    
    
    <g transform="translate(32, 64) skewY(-26.565) scale(0.9)">
      <text
        x="0"
        y="0"
        fill="#FFFFFF"
        fill-opacity="0.94"
        font-family="Fredoka, 'Varela Round', Arial, sans-serif"
        font-size="9"
        font-weight="800"
      >
        SQL DB
      </text>
    </g>

    <g transform="translate(85, 57.5) skewY(-26.565) scale(0.9)">
      <g transform="translate(-12, -12)">
        <path d="M12 2C6.48 2 2 3.79 2 6s4.48 4 10 4 10-1.79 10-4-4.48-4-10-4zm0 6c-5.52 0-10 1.79-10 4v4c0 2.21 4.48 4 10 4s10-1.79 10-4v-4c0-2.21-4.48-4-10-4zm0-2c3.53 0 6.64-1.01 8.35-2.52C18.64 4.99 15.53 3.98 12 3.98s-6.64 1.01-8.35 2.52C5.36 8.01 8.47 9.02 12 9.02z" fill="#FFFFFF" fill-opacity="0.9" />
      </g>
    </g>
  
  </g>
</svg>
