<svg xmlns="http://www.w3.org/2000/svg" viewBox="0 0 285 222">
  <!-- Left face -->
  <polygon points="14.25,91.0 142.5,155.125 142.5,175.125 14.25,111.0" fill="#0078B4" />
  <!-- Right face -->
  <polygon points="142.5,155.125 270.75,91.0 270.75,111.0 142.5,175.125" fill="#008ED6" />
  
  <!-- Text on left face -->
  <text transform="translate(78.375, 133.0625) rotate(26.56505117707799)" font-family="system-ui, -apple-system, sans-serif" font-size="14" font-weight="600" fill="#ffffff" fill-opacity="0.9" text-anchor="middle" dominant-baseline="middle">🗄️ SQL DB</text>
  <!-- Top face -->
  <polygon points="142.5,26.875 270.75,91.0 142.5,155.125 14.25,91.0" fill="#00A4EF" />
  
  <!-- Subtle highlight on top-left edge -->
  <line x1="14.25" y1="91.0" x2="142.5" y2="26.875" stroke="#ffffff" stroke-width="2" stroke-opacity="0.3" />
  
  <!-- Stud grid -->
  <!-- c=0, r=0 -->
  <path d="M 135.8438 30.2344 L 135.8438 35.2344 A 12 6 0 0 0 159.8438 35.2344 L 159.8438 30.2344 Z" fill="#0095e0" />
  <ellipse cx="147.8438" cy="30.2344" rx="12" ry="6" fill="#19bdff" />
  <ellipse cx="147.8438" cy="30.2344" rx="7.2" ry="3.6" fill="#00A4EF" fill-opacity="0.7" stroke="#0095e0" stroke-width="1" />
  
  <!-- c=1, r=0 -->
  <path d="M 167.9062 46.2656 L 167.9062 51.2656 A 12 6 0 0 0 191.9062 51.2656 L 191.9062 46.2656 Z" fill="#0095e0" />
  <ellipse cx="179.9062" cy="46.2656" rx="12" ry="6" fill="#19bdff" />
  <ellipse cx="179.9062" cy="46.2656" rx="7.2" ry="3.6" fill="#00A4EF" fill-opacity="0.7" stroke="#0095e0" stroke-width="1" />
  
  <!-- c=2, r=0 -->
  <path d="M 199.9688 62.2969 L 199.9688 67.2969 A 12 6 0 0 0 223.9688 67.2969 L 223.9688 62.2969 Z" fill="#0095e0" />
  <ellipse cx="211.9688" cy="62.2969" rx="12" ry="6" fill="#19bdff" />
  <ellipse cx="211.9688" cy="62.2969" rx="7.2" ry="3.6" fill="#00A4EF" fill-opacity="0.7" stroke="#0095e0" stroke-width="1" />
  
  <!-- c=3, r=0 -->
  <path d="M 232.0312 78.3281 L 232.0312 83.3281 A 12 6 0 0 0 256.0312 83.3281 L 256.0312 78.3281 Z" fill="#0095e0" />
  <ellipse cx="244.0312" cy="78.3281" rx="12" ry="6" fill="#19bdff" />
  <ellipse cx="244.0312" cy="78.3281" rx="7.2" ry="3.6" fill="#00A4EF" fill-opacity="0.7" stroke="#0095e0" stroke-width="1" />
  
  <!-- c=0, r=1 -->
  <path d="M 114.4688 40.9219 L 114.4688 45.9219 A 12 6 0 0 0 138.4688 45.9219 L 138.4688 40.9219 Z" fill="#0095e0" />
  <ellipse cx="126.4688" cy="40.9219" rx="12" ry="6" fill="#19bdff" />
  <ellipse cx="126.4688" cy="40.9219" rx="7.2" ry="3.6" fill="#00A4EF" fill-opacity="0.7" stroke="#0095e0" stroke-width="1" />
  
  <!-- c=1, r=1 -->
  <path d="M 146.5312 56.9531 L 146.5312 61.9531 A 12 6 0 0 0 170.5312 61.9531 L 170.5312 56.9531 Z" fill="#0095e0" />
  <ellipse cx="158.5312" cy="56.9531" rx="12" ry="6" fill="#19bdff" />
  <ellipse cx="158.5312" cy="56.9531" rx="7.2" ry="3.6" fill="#00A4EF" fill-opacity="0.7" stroke="#0095e0" stroke-width="1" />
  
  <!-- c=2, r=1 -->
  <path d="M 178.5938 72.9844 L 178.5938 77.9844 A 12 6 0 0 0 202.5938 77.9844 L 202.5938 72.9844 Z" fill="#0095e0" />
  <ellipse cx="190.5938" cy="72.9844" rx="12" ry="6" fill="#19bdff" />
  <ellipse cx="190.5938" cy="72.9844" rx="7.2" ry="3.6" fill="#00A4EF" fill-opacity="0.7" stroke="#0095e0" stroke-width="1" />
  
  <!-- c=3, r=1 -->
  <path d="M 210.6562 89.0156 L 210.6562 94.0156 A 12 6 0 0 0 234.6562 94.0156 L 234.6562 89.0156 Z" fill="#0095e0" />
  <ellipse cx="222.6562" cy="89.0156" rx="12" ry="6" fill="#19bdff" />
  <ellipse cx="222.6562" cy="89.0156" rx="7.2" ry="3.6" fill="#00A4EF" fill-opacity="0.7" stroke="#0095e0" stroke-width="1" />
  
  <!-- c=0, r=2 -->
  <path d="M 93.0938 51.6094 L 93.0938 56.6094 A 12 6 0 0 0 117.0938 56.6094 L 117.0938 51.6094 Z" fill="#0095e0" />
  <ellipse cx="105.0938" cy="51.6094" rx="12" ry="6" fill="#19bdff" />
  <ellipse cx="105.0938" cy="51.6094" rx="7.2" ry="3.6" fill="#00A4EF" fill-opacity="0.7" stroke="#0095e0" stroke-width="1" />
  
  <!-- c=1, r=2 -->
  <path d="M 125.1562 67.6406 L 125.1562 72.6406 A 12 6 0 0 0 149.1562 72.6406 L 149.1562 67.6406 Z" fill="#0095e0" />
  <ellipse cx="137.1562" cy="67.6406" rx="12" ry="6" fill="#19bdff" />
  <ellipse cx="137.1562" cy="67.6406" rx="7.2" ry="3.6" fill="#00A4EF" fill-opacity="0.7" stroke="#0095e0" stroke-width="1" />
  
  <!-- c=2, r=2 -->
  <path d="M 157.2188 83.6719 L 157.2188 88.6719 A 12 6 0 0 0 181.2188 88.6719 L 181.2188 83.6719 Z" fill="#0095e0" />
  <ellipse cx="169.2188" cy="83.6719" rx="12" ry="6" fill="#19bdff" />
  <ellipse cx="169.2188" cy="83.6719" rx="7.2" ry="3.6" fill="#00A4EF" fill-opacity="0.7" stroke="#0095e0" stroke-width="1" />
  
  <!-- c=3, r=2 -->
  <path d="M 189.2812 99.7031 L 189.2812 104.7031 A 12 6 0 0 0 213.2812 104.7031 L 213.2812 99.7031 Z" fill="#0095e0" />
  <ellipse cx="201.2812" cy="99.7031" rx="12" ry="6" fill="#19bdff" />
  <ellipse cx="201.2812" cy="99.7031" rx="7.2" ry="3.6" fill="#00A4EF" fill-opacity="0.7" stroke="#0095e0" stroke-width="1" />
  
  <!-- c=0, r=3 -->
  <path d="M 71.7188 62.2969 L 71.7188 67.2969 A 12 6 0 0 0 95.7188 67.2969 L 95.7188 62.2969 Z" fill="#0095e0" />
  <ellipse cx="83.7188" cy="62.2969" rx="12" ry="6" fill="#19bdff" />
  <ellipse cx="83.7188" cy="62.2969" rx="7.2" ry="3.6" fill="#00A4EF" fill-opacity="0.7" stroke="#0095e0" stroke-width="1" />
  
  <!-- c=1, r=3 -->
  <path d="M 103.7812 78.3281 L 103.7812 83.3281 A 12 6 0 0 0 127.7812 83.3281 L 127.7812 78.3281 Z" fill="#0095e0" />
  <ellipse cx="115.7812" cy="78.3281" rx="12" ry="6" fill="#19bdff" />
  <ellipse cx="115.7812" cy="78.3281" rx="7.2" ry="3.6" fill="#00A4EF" fill-opacity="0.7" stroke="#0095e0" stroke-width="1" />
  
  <!-- c=2, r=3 -->
  <path d="M 135.8438 94.3594 L 135.8438 99.3594 A 12 6 0 0 0 159.8438 99.3594 L 159.8438 94.3594 Z" fill="#0095e0" />
  <ellipse cx="147.8438" cy="94.3594" rx="12" ry="6" fill="#19bdff" />
  <ellipse cx="147.8438" cy="94.3594" rx="7.2" ry="3.6" fill="#00A4EF" fill-opacity="0.7" stroke="#0095e0" stroke-width="1" />
  
  <!-- c=3, r=3 -->
  <path d="M 167.9062 110.3906 L 167.9062 115.3906 A 12 6 0 0 0 191.9062 115.3906 L 191.9062 110.3906 Z" fill="#0095e0" />
  <ellipse cx="179.9062" cy="110.3906" rx="12" ry="6" fill="#19bdff" />
  <ellipse cx="179.9062" cy="110.3906" rx="7.2" ry="3.6" fill="#00A4EF" fill-opacity="0.7" stroke="#0095e0" stroke-width="1" />
  
  <!-- c=0, r=4 -->
  <path d="M 50.3438 72.9844 L 50.3438 77.9844 A 12 6 0 0 0 74.3438 77.9844 L 74.3438 72.9844 Z" fill="#0095e0" />
  <ellipse cx="62.3438" cy="72.9844" rx="12" ry="6" fill="#19bdff" />
  <ellipse cx="62.3438" cy="72.9844" rx="7.2" ry="3.6" fill="#00A4EF" fill-opacity="0.7" stroke="#0095e0" stroke-width="1" />
  
  <!-- c=1, r=4 -->
  <path d="M 82.4062 89.0156 L 82.4062 94.0156 A 12 6 0 0 0 106.4062 94.0156 L 106.4062 89.0156 Z" fill="#0095e0" />
  <ellipse cx="94.4062" cy="89.0156" rx="12" ry="6" fill="#19bdff" />
  <ellipse cx="94.4062" cy="89.0156" rx="7.2" ry="3.6" fill="#00A4EF" fill-opacity="0.7" stroke="#0095e0" stroke-width="1" />
  
  <!-- c=2, r=4 -->
  <path d="M 114.4688 105.0469 L 114.4688 110.0469 A 12 6 0 0 0 138.4688 110.0469 L 138.4688 105.0469 Z" fill="#0095e0" />
  <ellipse cx="126.4688" cy="105.0469" rx="12" ry="6" fill="#19bdff" />
  <ellipse cx="126.4688" cy="105.0469" rx="7.2" ry="3.6" fill="#00A4EF" fill-opacity="0.7" stroke="#0095e0" stroke-width="1" />
  
  <!-- c=3, r=4 -->
  <path d="M 146.5312 121.0781 L 146.5312 126.0781 A 12 6 0 0 0 170.5312 126.0781 L 170.5312 121.0781 Z" fill="#0095e0" />
  <ellipse cx="158.5312" cy="121.0781" rx="12" ry="6" fill="#19bdff" />
  <ellipse cx="158.5312" cy="121.0781" rx="7.2" ry="3.6" fill="#00A4EF" fill-opacity="0.7" stroke="#0095e0" stroke-width="1" />
  
  <!-- c=0, r=5 -->
  <path d="M 28.9688 83.6719 L 28.9688 88.6719 A 12 6 0 0 0 52.9688 88.6719 L 52.9688 83.6719 Z" fill="#0095e0" />
  <ellipse cx="40.9688" cy="83.6719" rx="12" ry="6" fill="#19bdff" />
  <ellipse cx="40.9688" cy="83.6719" rx="7.2" ry="3.6" fill="#00A4EF" fill-opacity="0.7" stroke="#0095e0" stroke-width="1" />
  
  <!-- c=1, r=5 -->
  <path d="M 61.0312 99.7031 L 61.0312 104.7031 A 12 6 0 0 0 85.0312 104.7031 L 85.0312 99.7031 Z" fill="#0095e0" />
  <ellipse cx="73.0312" cy="99.7031" rx="12" ry="6" fill="#19bdff" />
  <ellipse cx="73.0312" cy="99.7031" rx="7.2" ry="3.6" fill="#00A4EF" fill-opacity="0.7" stroke="#0095e0" stroke-width="1" />
  
  <!-- c=2, r=5 -->
  <path d="M 93.0938 115.7344 L 93.0938 120.7344 A 12 6 0 0 0 117.0938 120.7344 L 117.0938 115.7344 Z" fill="#0095e0" />
  <ellipse cx="105.0938" cy="115.7344" rx="12" ry="6" fill="#19bdff" />
  <ellipse cx="105.0938" cy="115.7344" rx="7.2" ry="3.6" fill="#00A4EF" fill-opacity="0.7" stroke="#0095e0" stroke-width="1" />
  
  <!-- c=3, r=5 -->
  <path d="M 125.1562 131.7656 L 125.1562 136.7656 A 12 6 0 0 0 149.1562 136.7656 L 149.1562 131.7656 Z" fill="#0095e0" />
  <ellipse cx="137.1562" cy="131.7656" rx="12" ry="6" fill="#19bdff" />
  <ellipse cx="137.1562" cy="131.7656" rx="7.2" ry="3.6" fill="#00A4EF" fill-opacity="0.7" stroke="#0095e0" stroke-width="1" />
</svg>
