<svg xmlns="http://www.w3.org/2000/svg" viewBox="0 0 95 95">
  <!-- Left face -->
  <polygon points="4.75,37.5 47.5,58.875 47.5,68.875 4.75,47.5" fill="#A62D01" />
  <!-- Right face -->
  <polygon points="47.5,58.875 90.25,37.5 90.25,47.5 47.5,68.875" fill="#BF3401" />
  
  <!-- Text on left face -->
  <text transform="translate(26.125, 53.1875) rotate(26.56505117707799)" font-family="system-ui, -apple-system, sans-serif" font-size="8" font-weight="600" fill="#ffffff" fill-opacity="0.9" text-anchor="middle" dominant-baseline="middle">🔔 Event Hub</text>
  <!-- Top face -->
  <polygon points="47.5,16.125 90.25,37.5 47.5,58.875 4.75,37.5" fill="#D83B01" />
  
  <!-- Subtle highlight on top-left edge -->
  <line x1="4.75" y1="37.5" x2="47.5" y2="16.125" stroke="#ffffff" stroke-width="2" stroke-opacity="0.3" />
  
  <!-- Stud grid -->
  <!-- c=0, r=0 -->
  <path d="M 46.1875 22.15625 L 46.1875 27.15625 A 12 6 0 0 0 70.1875 27.15625 L 70.1875 22.15625 Z" fill="#c92c00" />
  <ellipse cx="58.1875" cy="22.15625" rx="12" ry="6" fill="#f1541a" />
  <ellipse cx="58.1875" cy="22.15625" rx="7.2" ry="3.6" fill="#D83B01" fill-opacity="0.7" stroke="#c92c00" stroke-width="1" />
  
  <!-- c=0, r=1 -->
  <path d="M 24.8125 32.84375 L 24.8125 37.84375 A 12 6 0 0 0 48.8125 37.84375 L 48.8125 32.84375 Z" fill="#c92c00" />
  <ellipse cx="36.8125" cy="32.84375" rx="12" ry="6" fill="#f1541a" />
  <ellipse cx="36.8125" cy="32.84375" rx="7.2" ry="3.6" fill="#D83B01" fill-opacity="0.7" stroke="#c92c00" stroke-width="1" />
</svg>
