<svg xmlns="http://www.w3.org/2000/svg" viewBox="0 0 120 140">
  <g>
    <polygon points="10,25 10,65 60,90 60,50" fill="#980000" />
    <polygon points="60,50 60,90 110,65 110,25" fill="#b21500" />
    <polygon points="60,0 10,25 60,50 110,25" fill="#D83B01" />
    
    
      <g transform="translate(42, 15)">
        <ellipse cx="0" cy="0" rx="14" ry="7" fill="#D83B01" />
        <path d="M -14 0 L -14 -6 A 14 7 0 0 1 14 -6 L 14 0 A 14 7 0 0 1 -14 0 Z" fill="#a50800" />
        <ellipse cx="0" cy="-6" rx="14" ry="7" fill="#f1541a" />
      </g>
    
      <g transform="translate(78, 15)">
        <ellipse cx="0" cy="0" rx="14" ry="7" fill="#D83B01" />
        <path d="M -14 0 L -14 -6 A 14 7 0 0 1 14 -6 L 14 0 A 14 7 0 0 1 -14 0 Z" fill="#a50800" />
        <ellipse cx="0" cy="-6" rx="14" ry="7" fill="#f1541a" />
      </g>
    
      <g transform="translate(42, 33)">
        <ellipse cx="0" cy="0" rx="14" ry="7" fill="#D83B01" />
        <path d="M -14 0 L -14 -6 A 14 7 0 0 1 14 -6 L 14 0 A 14 7 0 0 1 -14 0 Z" fill="#a50800" />
        <ellipse cx="0" cy="-6" rx="14" ry="7" fill="#f1541a" />
      </g>
    
      <g transform="translate(78, 33)">
        <ellipse cx="0" cy="0" rx="14" ry="7" fill="#D83B01" />
        <path d="M -14 0 L -14 -6 A 14 7 0 0 1 14 -6 L 14 0 A 14 7 0 0 1 -14 0 Z" fill="#a50800" />
        <ellipse cx="0" cy="-6" rx="14" ry="7" fill="#f1541a" />
      </g>
    
    
    <g transform="translate(35, 64) skewY(-26.565) scale(0.9)">
      <text
        x="0"
        y="0"
        fill="#FFFFFF"
        fill-opacity="0.94"
        font-family="Fredoka, 'Varela Round', Arial, sans-serif"
        font-size="8"
        font-weight="800"
      >
        EVENT
      </text>
    </g>

    <g transform="translate(85, 57.5) skewY(26.565) scale(0.9)">
      <g transform="translate(-12, -12)">
        <path d="M12 22c1.1 0 2-.9 2-2h-4c0 1.1.89 2 2 2zm6-6v-5c0-3.07-1.64-5.64-4.5-6.32V4c0-.83-.67-1.5-1.5-1.5s-1.5.67-1.5 1.5v.68C7.63 5.36 6 7.92 6 11v5l-2 2v1h16v-1l-2-2z" fill="#FFFFFF" fill-opacity="0.9" />
      </g>
    </g>
  
  </g>
</svg>
