<svg xmlns="http://www.w3.org/2000/svg" viewBox="0 0 158 127">
  <!-- Left face -->
  <polygon points="7.9,48.5 79.0,84.05 79.0,98.05 7.9,62.5" fill="#CC9400" />
  <!-- Right face -->
  <polygon points="79.0,84.05 150.1,48.5 150.1,62.5 79.0,98.05" fill="#E6A700" />
  
  <!-- Text on left face -->
  <text transform="translate(43.45, 73.275) rotate(26.56505117707799)" font-family="system-ui, -apple-system, sans-serif" font-size="11" font-weight="600" fill="#ffffff" fill-opacity="0.9" text-anchor="middle" dominant-baseline="middle">⚡ App Svc</text>
  <!-- Top face -->
  <polygon points="79.0,12.95 150.1,48.5 79.0,84.05 7.9,48.5" fill="#FFB900" />
  
  <!-- Subtle highlight on top-left edge -->
  <line x1="7.9" y1="48.5" x2="79.0" y2="12.95" stroke="#ffffff" stroke-width="2" stroke-opacity="0.3" />
  
  <!-- Stud grid -->
  <!-- c=0, r=0 -->
  <path d="M 67.0 20.725 L 67.0 25.725 A 12 6 0 0 0 91.0 25.725 L 91.0 20.725 Z" fill="#f0aa00" />
  <ellipse cx="79.0" cy="20.725" rx="12" ry="6" fill="#ffd219" />
  <ellipse cx="79.0" cy="20.725" rx="7.2" ry="3.6" fill="#FFB900" fill-opacity="0.7" stroke="#f0aa00" stroke-width="1" />
  
  <!-- c=1, r=0 -->
  <path d="M 102.55 38.5 L 102.55 43.5 A 12 6 0 0 0 126.55 43.5 L 126.55 38.5 Z" fill="#f0aa00" />
  <ellipse cx="114.55" cy="38.5" rx="12" ry="6" fill="#ffd219" />
  <ellipse cx="114.55" cy="38.5" rx="7.2" ry="3.6" fill="#FFB900" fill-opacity="0.7" stroke="#f0aa00" stroke-width="1" />
  
  <!-- c=0, r=1 -->
  <path d="M 31.45 38.5 L 31.45 43.5 A 12 6 0 0 0 55.45 43.5 L 55.45 38.5 Z" fill="#f0aa00" />
  <ellipse cx="43.45" cy="38.5" rx="12" ry="6" fill="#ffd219" />
  <ellipse cx="43.45" cy="38.5" rx="7.2" ry="3.6" fill="#FFB900" fill-opacity="0.7" stroke="#f0aa00" stroke-width="1" />
  
  <!-- c=1, r=1 -->
  <path d="M 67.0 56.275 L 67.0 61.275 A 12 6 0 0 0 91.0 61.275 L 91.0 56.275 Z" fill="#f0aa00" />
  <ellipse cx="79.0" cy="56.275" rx="12" ry="6" fill="#ffd219" />
  <ellipse cx="79.0" cy="56.275" rx="7.2" ry="3.6" fill="#FFB900" fill-opacity="0.7" stroke="#f0aa00" stroke-width="1" />
</svg>
