<svg xmlns="http://www.w3.org/2000/svg" viewBox="0 0 120 140">
  <g>
    <polygon points="10,25 10,65 60,90 60,50" fill="#212121" />
    <polygon points="60,50 60,90 110,65 110,25" fill="#3b3b3b" />
    <polygon points="60,0 10,25 60,50 110,25" fill="#616161" />
    
    
      <g transform="translate(42, 15)">
        <ellipse cx="0" cy="0" rx="14" ry="7" fill="#616161" />
        <path d="M -14 0 L -14 -6 A 14 7 0 0 1 14 -6 L 14 0 A 14 7 0 0 1 -14 0 Z" fill="#2e2e2e" />
        <ellipse cx="0" cy="-6" rx="14" ry="7" fill="#7a7a7a" />
      </g>
    
      <g transform="translate(78, 15)">
        <ellipse cx="0" cy="0" rx="14" ry="7" fill="#616161" />
        <path d="M -14 0 L -14 -6 A 14 7 0 0 1 14 -6 L 14 0 A 14 7 0 0 1 -14 0 Z" fill="#2e2e2e" />
        <ellipse cx="0" cy="-6" rx="14" ry="7" fill="#7a7a7a" />
      </g>
    
      <g transform="translate(42, 33)">
        <ellipse cx="0" cy="0" rx="14" ry="7" fill="#616161" />
        <path d="M -14 0 L -14 -6 A 14 7 0 0 1 14 -6 L 14 0 A 14 7 0 0 1 -14 0 Z" fill="#2e2e2e" />
        <ellipse cx="0" cy="-6" rx="14" ry="7" fill="#7a7a7a" />
      </g>
    
      <g transform="translate(78, 33)">
        <ellipse cx="0" cy="0" rx="14" ry="7" fill="#616161" />
        <path d="M -14 0 L -14 -6 A 14 7 0 0 1 14 -6 L 14 0 A 14 7 0 0 1 -14 0 Z" fill="#2e2e2e" />
        <ellipse cx="0" cy="-6" rx="14" ry="7" fill="#7a7a7a" />
      </g>
    
    
    <g transform="translate(35, 64) skewY(-26.565) scale(0.9)">
      <text
        x="0"
        y="0"
        fill="#FFFFFF"
        fill-opacity="0.94"
        font-family="Fredoka, 'Varela Round', Arial, sans-serif"
        font-size="9"
        font-weight="800"
      >
        QUEUE
      </text>
    </g>

    <g transform="translate(85, 57.5) skewY(-26.565) scale(0.9)">
      <g transform="translate(-12, -12)">
        <path d="M20 4H4c-1.1 0-1.99.9-1.99 2L2 18c0 1.1.9 2 2 2h16c1.1 0 2-.9 2-2V6c0-1.1-.9-2-2-2zm0 4l-8 5-8-5V6l8 5 8-5v2z" fill="#FFFFFF" fill-opacity="0.9" />
      </g>
    </g>
  
  </g>
</svg>
