<svg xmlns="http://www.w3.org/2000/svg" viewBox="0 0 120 140">
  <g>
    <polygon points="10,25 10,65 60,90 60,50" fill="#1c0051" />
    <polygon points="60,50 60,90 110,65 110,25" fill="#36076b" />
    <polygon points="60,0 10,25 60,50 110,25" fill="#5C2D91" />
    
    
      <g transform="translate(42, 15)">
        <ellipse cx="0" cy="0" rx="14" ry="7" fill="#5C2D91" />
        <path d="M -14 0 L -14 -6 A 14 7 0 0 1 14 -6 L 14 0 A 14 7 0 0 1 -14 0 Z" fill="#29005e" />
        <ellipse cx="0" cy="-6" rx="14" ry="7" fill="#7546aa" />
      </g>
    
      <g transform="translate(78, 15)">
        <ellipse cx="0" cy="0" rx="14" ry="7" fill="#5C2D91" />
        <path d="M -14 0 L -14 -6 A 14 7 0 0 1 14 -6 L 14 0 A 14 7 0 0 1 -14 0 Z" fill="#29005e" />
        <ellipse cx="0" cy="-6" rx="14" ry="7" fill="#7546aa" />
      </g>
    
      <g transform="translate(42, 33)">
        <ellipse cx="0" cy="0" rx="14" ry="7" fill="#5C2D91" />
        <path d="M -14 0 L -14 -6 A 14 7 0 0 1 14 -6 L 14 0 A 14 7 0 0 1 -14 0 Z" fill="#29005e" />
        <ellipse cx="0" cy="-6" rx="14" ry="7" fill="#7546aa" />
      </g>
    
      <g transform="translate(78, 33)">
        <ellipse cx="0" cy="0" rx="14" ry="7" fill="#5C2D91" />
        <path d="M -14 0 L -14 -6 A 14 7 0 0 1 14 -6 L 14 0 A 14 7 0 0 1 -14 0 Z" fill="#29005e" />
        <ellipse cx="0" cy="-6" rx="14" ry="7" fill="#7546aa" />
      </g>
    
    
    <g transform="translate(35, 64) skewY(-26.565) scale(0.9)">
      <text
        x="0"
        y="0"
        fill="#FFFFFF"
        fill-opacity="0.94"
        font-family="Fredoka, 'Varela Round', Arial, sans-serif"
        font-size="9"
        font-weight="800"
      >
        TIMER
      </text>
    </g>

    <g transform="translate(85, 57.5) skewY(-26.565) scale(0.9)">
      <g transform="translate(-12, -12)">
        <path d="M11.99 2C6.47 2 2 6.48 2 12s4.47 10 9.99 10C17.52 22 22 17.52 22 12S17.52 2 11.99 2zM12 20c-4.42 0-8-3.58-8-8s3.58-8 8-8 8 3.58 8 8-3.58 8-8 8zm.5-13H11v6l5.25 3.15.75-1.23-4.5-2.67z" fill="#FFFFFF" fill-opacity="0.9" />
      </g>
    </g>
  
  </g>
</svg>
